<?xml version="1.0" encoding="UTF-8" standalone="no"?>
<!-- Creator: CorelDRAW -->

<svg
   xmlns:dc="http://purl.org/dc/elements/1.1/"
   xmlns:cc="http://creativecommons.org/ns#"
   xmlns:rdf="http://www.w3.org/1999/02/22-rdf-syntax-ns#"
   xmlns:svg="http://www.w3.org/2000/svg"
   xmlns="http://www.w3.org/2000/svg"
   xmlns:sodipodi="http://sodipodi.sourceforge.net/DTD/sodipodi-0.dtd"
   xmlns:inkscape="http://www.inkscape.org/namespaces/inkscape"
   xml:space="preserve"
   width="260px"
   height="270px"
   style="shape-rendering:geometricPrecision; text-rendering:geometricPrecision; image-rendering:optimizeQuality; fill-rule:evenodd; clip-rule:evenodd"
   viewBox="0 0 260 270.002"
   id="svg3013"
   version="1.1"
   inkscape:version="0.48.1 "
   sodipodi:docname="ca_palermo_logo.svg"><metadata
   id="metadata3039"><rdf:RDF><cc:Work
       rdf:about=""><dc:format>image/svg+xml</dc:format><dc:type
         rdf:resource="http://purl.org/dc/dcmitype/StillImage" /></cc:Work></rdf:RDF></metadata><sodipodi:namedview
   pagecolor="#ffffff"
   bordercolor="#666666"
   borderopacity="1"
   objecttolerance="10"
   gridtolerance="10"
   guidetolerance="10"
   inkscape:pageopacity="0"
   inkscape:pageshadow="2"
   inkscape:window-width="1366"
   inkscape:window-height="706"
   id="namedview3037"
   showgrid="false"
   inkscape:zoom="1.0777778"
   inkscape:cx="-23.556701"
   inkscape:cy="135"
   inkscape:window-x="-8"
   inkscape:window-y="-8"
   inkscape:window-maximized="1"
   inkscape:current-layer="svg3013" />
 <defs
   id="defs3015">
  <style
   type="text/css"
   id="style3017">
   
    .str0 {stroke:white;stroke-width:35.4333}
    .fil2 {fill:none}
    .fil4 {fill:white}
    .fil0 {fill:#322073}
    .fil1 {fill:#D52C27}
    .fil3 {fill:white;fill-rule:nonzero}
   
  </style>
    <clipPath
   id="id0">
     <path
   d="M129.309 16.1883l-0.0484255 0.0413388 -0.0484255 -0.0413388 0 0.0838588c-26.373,22.8805 -62.4523,33.8364 -117.402,36.3734 13.8166,172.777 103.217,198.73 117.402,205.291l0 0.0437011 0.0484255 -0.02126 0.0484255 0.02126 0 -0.0437011c14.1851,-6.56106 103.586,-32.5136 117.402,-205.291 -54.9488,-2.53702 -91.0281,-13.493 -117.402,-36.3734l0 -0.0838588z"
   id="path3020" />
    </clipPath>
 
  
  
 
   
   
   
   
   
   
   
  </defs>
 <g
   id="g3828"><path
     style="fill:#322073"
     inkscape:connector-curvature="0"
     d="m 129.309,16.1883 -0.0484,0.04134 -0.0484,-0.04134 0,0.08386 c -26.373,22.8805 -62.452301,33.8364 -117.402001,36.3734 13.81655,172.777 103.216951,198.73 117.401951,205.291 l 0,0.0437 0.0484,-0.0213 0.0484,0.0213 0,-0.0437 c 14.1851,-6.56106 103.586,-32.5136 117.402,-205.291001 -54.9488,-2.53702 -91.0281,-13.493 -117.402,-36.3734 l 0,-0.08386 z"
     class="fil0"
     id="_45407488" /><g
     style="stroke-width:5.00003704;stroke-miterlimit:4;stroke-dasharray:none"
     clip-path="url(#id0)"
     id="g3026">
    <g
   style="stroke-width:5.00003704;stroke-miterlimit:4;stroke-dasharray:none"
   id="g3028">
     <polygon
   style="fill:#d52c27;stroke:#ffffff;stroke-width:5.00003704;stroke-miterlimit:4;stroke-dasharray:none"
   points="4.36656,181.241 21.7147,161.383 267.643,43.003 288.618,90.1009 43.3184,210.533 "
   class="fil1 str0"
   id="_45322960" />
    </g>
   </g><path
     style="fill:none"
     inkscape:connector-curvature="0"
     id="path3031"
     d="m 129.309,16.1883 -0.0484,0.04134 -0.0484,-0.04134 0,0.08386 c -26.373,22.8805 -62.452301,33.8364 -117.402001,36.3734 13.81655,172.777 103.216951,198.73 117.401951,205.291 l 0,0.0437 0.0484,-0.0213 0.0484,0.0213 0,-0.0437 c 14.1851,-6.56106 103.586,-32.5136 117.402,-205.291001 -54.9488,-2.53702 -91.0281,-13.493 -117.402,-36.3734 l 0,-0.08386 z"
     class="fil2" /><path
     style="fill:#ffffff;fill-rule:nonzero"
     inkscape:connector-curvature="0"
     d="m 100.085,162.316 0.8693,1.81182 c 1.53662,3.20199 -1.622843,6.68862 -9.476043,10.4575 l -6.34964,3.04726 c -7.8532,3.76892 -12.5493,4.05239 -14.0859,0.8504 l -8.95753,-18.6639 c -1.53662,-3.20199 1.62284,-6.68862 9.47486,-10.4575 l 6.34964,-3.04726 c 7.8532,-3.76892 12.5493,-4.05239 14.0859,-0.8504 l 1.53072,3.189 -9.83392,4.71971 -1.39725,-2.9138 c -0.529137,-1.10198 -2.26182,-0.94843 -5.19806,0.46063 l -1.94765,0.93426 c -2.59608,1.24607 -3.62719,2.42009 -3.09805,3.52207 l 8.69297,18.1123 c 0.527956,1.10198 2.08938,1.03111 4.68546,-0.21378 l 2.45907,-1.18111 c 2.59372,-1.24489 3.62719,-2.41891 3.09923,-3.52207 l -0.737012,-1.53544 9.833925,-4.71971 z m 36.5648,-9.4099 -9.83392,4.71971 -11.2442,-23.4285 c -1.54962,-3.22915 1.60395,-6.7276 9.45714,-10.4977 l 7.37367,-3.5386 c 7.8532,-3.76892 12.5528,-4.03821 14.1024,-0.81024 l 11.2442,23.4285 -9.83037,4.71853 -4.97011,-10.356 -11.269,5.4083 4.97011,10.356 z m 4.65475,-19.1895 -4.51656,-9.41108 c -0.52914,-1.10198 -2.22875,-0.96497 -5.09649,0.41103 l -2.66458,1.27914 c -2.86655,1.37599 -4.03703,2.61616 -3.5079,3.71813 l 4.51656,9.41108 11.269,-5.4083 z m 27.9734,-31.2533 17.9245,-8.6032 c 7.92288,-3.80199 12.6591,-4.089 14.2076,-0.861029 l 4.02522,8.387059 c 1.5378,3.20317 -1.62166,6.6898 -9.47486,10.4587 l -8.19336,3.93309 4.91223,10.2367 -9.83274,4.71971 -13.5686,-28.271 z m 16.845,9.88825 6.24925,-2.99884 c 2.59254,-1.24489 3.62719,-2.42009 3.09805,-3.52207 L 191.6907,97.955 c -0.52914,-1.10198 -2.26182,-0.948431 -5.19806,0.460633 l -5.73665,2.753167 5.36696,11.1827 z"
     class="fil3"
     id="_45407608" /><polygon
     style="fill:#ffffff"
     points="104.072,162.413 109.603,159.737 111.629,163.924 106.097,166.599 "
     class="fil4"
     id="_45407464" /><polygon
     style="fill:#ffffff"
     points="158.401,136.703 163.933,134.028 165.958,138.213 160.425,140.889 "
     class="fil4"
     id="_45407248" /><polygon
     style="fill:#ffffff"
     points="212.73,110.992 218.262,108.317 220.286,112.503 214.754,115.179 "
     class="fil4"
     id="_45322984" /></g>
</svg>